<svg width="24" height="24" viewBox="0 0 24 24" fill="none" xmlns="http://www.w3.org/2000/svg">
<path d="M3.6155 20C3.15517 20 2.77083 19.8458 2.4625 19.5375C2.15417 19.2292 2 18.8448 2 18.3845V7.6155C2 7.15517 2.15417 6.77083 2.4625 6.4625C2.77083 6.15417 3.15517 6 3.6155 6H6.573L8.423 4H13.6155V5H8.85575L7.0115 7H3.6155C3.436 7 3.2885 7.05767 3.173 7.173C3.05767 7.2885 3 7.436 3 7.6155V18.3845C3 18.564 3.05767 18.7115 3.173 18.827C3.2885 18.9423 3.436 19 3.6155 19H18.3845C18.564 19 18.7115 18.9423 18.827 18.827C18.9423 18.7115 19 18.564 19 18.3845V10.3845H20V18.3845C20 18.8448 19.8458 19.2292 19.5375 19.5375C19.2292 19.8458 18.8448 20 18.3845 20H3.6155ZM19 7V5H17V4H19V2H20V4H22V5H20V7H19ZM11 16.7308C12.0448 16.7308 12.9278 16.3702 13.649 15.649C14.3702 14.9278 14.7308 14.0448 14.7308 13C14.7308 11.9552 14.3702 11.0722 13.649 10.351C12.9278 9.62983 12.0448 9.26925 11 9.26925C9.95517 9.26925 9.07217 9.62983 8.351 10.351C7.62983 11.0722 7.26925 11.9552 7.26925 13C7.26925 14.0448 7.62983 14.9278 8.351 15.649C9.07217 16.3702 9.95517 16.7308 11 16.7308ZM11 15.7308C10.223 15.7308 9.57367 15.4698 9.052 14.948C8.53017 14.4263 8.26925 13.777 8.26925 13C8.26925 12.223 8.53017 11.5737 9.052 11.052C9.57367 10.5302 10.223 10.2693 11 10.2693C11.777 10.2693 12.4263 10.5302 12.948 11.052C13.4698 11.5737 13.7308 12.223 13.7308 13C13.7308 13.777 13.4698 14.4263 12.948 14.948C12.4263 15.4698 11.777 15.7308 11 15.7308Z" fill="white"/>
</svg>
