<svg width="30" height="30" viewBox="0 0 30 30" fill="none" xmlns="http://www.w3.org/2000/svg">
    <path d="M6.25 23.4616V22.2116H8.26937V12.3078C8.26937 10.6747 8.78615 9.23833 9.81969 7.99875C10.8534 6.75917 12.1635 5.98719 13.75 5.68281V5C13.75 4.65271 13.8713 4.3576 14.1138 4.11469C14.3563 3.87156 14.6507 3.75 14.9972 3.75C15.3436 3.75 15.6391 3.87156 15.8834 4.11469C16.1278 4.3576 16.25 4.65271 16.25 5V5.68281C17.8365 5.98719 19.1466 6.75917 20.1803 7.99875C21.2139 9.23833 21.7306 10.6747 21.7306 12.3078V22.2116H23.75V23.4616H6.25ZM14.9956 26.7306C14.4392 26.7306 13.9643 26.5329 13.5709 26.1375C13.1774 25.7421 12.9806 25.2668 12.9806 24.7116H17.0194C17.0194 25.2709 16.8211 25.7473 16.4247 26.1406C16.0284 26.534 15.5521 26.7306 14.9956 26.7306ZM9.51937 22.2116H20.4806V12.3078C20.4806 10.7884 19.947 9.4951 18.8797 8.42781C17.8124 7.36052 16.5192 6.82688 15 6.82688C13.4808 6.82688 12.1876 7.36052 11.1203 8.42781C10.053 9.4951 9.51937 10.7884 9.51937 12.3078V22.2116Z" fill="black"/>
</svg>
