<svg width="14" height="14" viewBox="0 0 14 14" fill="none" xmlns="http://www.w3.org/2000/svg">
<g id="Frame">
<path id="Vector" d="M7.00187 6.84294C7.26155 6.84294 7.48317 6.75048 7.66673 6.56556C7.85038 6.38065 7.94221 6.15835 7.94221 5.89867C7.94221 5.63899 7.8497 5.41732 7.66469 5.23367C7.47977 5.05011 7.25747 4.95833 6.99779 4.95833C6.73811 4.95833 6.51649 5.05079 6.33293 5.23571C6.14928 5.42063 6.05746 5.64292 6.05746 5.9026C6.05746 6.16228 6.14996 6.38395 6.33498 6.5676C6.51989 6.75116 6.74219 6.84294 7.00187 6.84294ZM6.99983 11.4783C8.09621 10.5239 8.96299 9.55335 9.60018 8.56654C10.2374 7.57974 10.556 6.72627 10.556 6.00615C10.556 4.93894 10.2181 4.0581 9.54243 3.36365C8.86674 2.66929 8.01921 2.3221 6.99983 2.3221C5.98046 2.3221 5.13292 2.66929 4.45723 3.36365C3.78153 4.0581 3.44368 4.93894 3.44368 6.00615C3.44368 6.72627 3.76228 7.57974 4.39948 8.56654C5.03667 9.55335 5.90346 10.5239 6.99983 11.4783ZM6.99983 12.2612C5.629 11.049 4.5964 9.91837 3.90204 8.86944C3.20758 7.8206 2.86035 6.86617 2.86035 6.00615C2.86035 4.7721 3.26217 3.75424 4.06581 2.95254C4.86935 2.15085 5.84736 1.75 6.99983 1.75C8.1523 1.75 9.13031 2.15085 9.93385 2.95254C10.7375 3.75424 11.1393 4.7721 11.1393 6.00615C11.1393 6.86617 10.7921 7.8206 10.0976 8.86944C9.40326 9.91837 8.37066 11.049 6.99983 12.2612Z" fill="#5A5A5A"/>
</g>
</svg>
