<svg width="18" height="20" viewBox="0 0 18 20" fill="none" xmlns="http://www.w3.org/2000/svg">
<g id="Frame">
<path id="Vector" d="M4.26919 15.8336V15.0002H5.36831L6.77738 9.71335C6.8485 9.4164 6.992 9.18161 7.20788 9.00897C7.42375 8.83647 7.66538 8.75022 7.93275 8.75022H10.0673C10.3346 8.75022 10.5763 8.83647 10.7921 9.00897C11.008 9.18161 11.1515 9.4164 11.2226 9.71335L12.6317 15.0002H13.7308V15.8336H4.26919ZM6.16444 15.0002H11.8356L10.5 9.9521C10.4711 9.8346 10.4158 9.74383 10.3341 9.67981C10.2524 9.61564 10.1587 9.58356 10.0528 9.58356H7.94719C7.84131 9.58356 7.74756 9.61564 7.66594 9.67981C7.58419 9.74383 7.52888 9.8346 7.5 9.9521L6.16444 15.0002ZM8.625 6.57064V3.2373H9.375V6.57064H8.625ZM12.7125 8.45689L12.1774 7.86231L14.3063 5.51793L14.8226 6.09147L12.7125 8.45689ZM13.875 12.404V11.5706H16.875V12.404H13.875ZM5.2875 8.45689L3.17738 6.09147L3.69375 5.51793L5.82263 7.86231L5.2875 8.45689ZM1.125 12.404V11.5706H4.125V12.404H1.125Z" fill="#B61D1D"/>
</g>
</svg>
