<svg width="52" height="54" viewBox="0 0 52 54" fill="none" xmlns="http://www.w3.org/2000/svg">
<path d="M21.6061 51.5589C12.5777 51.5589 6.94645 39.9433 2.59733 33.178C0.102109 29.2965 7.01541 28.577 9.39027 29.5817C11.029 30.275 12.7274 32.0577 14.2995 33.0638C15.3421 33.7311 13.6636 28.4579 13.3861 27.6409C12.7374 25.7308 9.18052 16.643 12.0732 15.1967C16.3172 13.0747 19.0737 17.3628 20.807 20.3342C21.6735 21.8197 22.8936 23.1258 23.547 24.7296C23.6864 25.0718 24.0581 25.9934 24.1749 25.6429C25.1038 22.8562 24.2184 18.271 24.1749 15.3108C24.1204 11.606 22.2113 6.49705 25.0882 3.38038C27.8587 0.379025 30.8345 3.12631 32.6233 5.83497C34.7309 9.02651 36.1 11.8704 37.0187 15.5963C37.5368 17.6976 37.2666 23.6599 38.6741 25.2434C40.4211 27.2087 39.5308 18.3109 42.1562 18.165C53.0968 17.5572 49.5045 30.2532 47.9216 37.0597C46.4196 43.5186 41.7517 50.0176 34.5641 50.0176C32.0682 50.0176 29.7276 51.0451 27.1432 51.0451C24.955 51.0451 22.7668 51.0451 20.5786 51.0451" stroke="#FF0000" stroke-width="3" stroke-linecap="round"/>
<path d="M26.2299 40.7701C26.2299 36.7983 28.8129 34.8994 32.3664 33.863C34.3843 33.2744 37.0187 33.2024 37.0187 35.8609C37.0187 39.0216 35.1403 41.7976 31.6528 41.7976C27.7166 41.7976 26.9706 37.2763 30.8537 35.8895C32.0743 35.4535 34.5368 35.1201 33.6508 37.1453C32.1531 40.5686 31.0766 38.478 30.5968 36.1749C30.1588 34.0726 30.2792 32.0798 29.712 29.9813C29.0935 27.6929 27.7712 25.1767 27.7712 22.7888C27.7712 21.3751 26.7437 20.6039 26.7437 19.0784C26.7437 16.2085 28.1389 13.7465 28.2849 10.9725C28.3566 9.61012 28.2849 8.22708 28.2849 6.86249C28.2849 5.13716 33.1795 11.4268 33.9362 12.3996C35.968 15.0119 37.5466 19.0322 36.1054 22.275C35.636 23.3311 35.6033 24.1826 34.6497 23.0171C31.8265 19.5665 32.1484 17.306 31.6243 12.7992C31.5417 12.0887 30.8537 4.82473 30.8537 8.43229C30.8537 13.0418 29.8262 17.6568 29.8262 22.3321C29.8262 25.5492 30.8537 28.6787 30.8537 31.7794C30.8537 34.3073 29.2852 33.5776 27.0005 33.5776C20.0244 33.5776 21.4929 25.758 17.753 22.0182C17.2889 21.5541 14.6156 18.4046 14.4422 19.7919C14.0427 22.9876 14.8867 26.7808 16.2118 29.6959C16.6731 30.7108 18.882 36.1463 16.697 36.1463C13.7343 36.1463 9.26801 36.9068 7.22111 34.3482C6.55942 33.5211 4.69453 34.0721 5.19464 32.3217C5.51304 31.2073 8.61935 33.0439 9.01924 33.3207C11.9531 35.3518 14.2078 39.7407 15.8407 42.8251C16.2259 43.5527 17.0267 44.1823 17.6103 44.7659C18.5787 45.7344 16.2813 44.6456 15.8407 43.8526C14.6839 41.7703 12.4561 40.435 12.3586 37.8018C12.3039 36.3243 12.9291 37.2306 13.6715 37.973C15.2872 39.5886 16.9873 41.1322 18.6378 42.7109C19.676 43.704 21.7541 45.3939 23.2616 45.3939C25.8253 45.3939 30.0074 46.2791 32.2808 44.8801C34.308 43.6326 36.8644 43.1306 39.0166 42.0545C41.2052 40.9602 41.7366 39.0253 42.9268 37.1738C46.0508 32.3143 44.8212 27.0271 46.0093 21.5615C47.0329 16.8533 41.4434 22.7888 44.4681 22.7888C48.3631 22.7888 48.3212 24.5339 48.3212 27.9263C48.3212 32.2128 46.2498 36.5429 45.7525 40.7701C45.5206 42.7409 42.2644 44.6399 40.615 45.508C37.8002 46.9895 34.6224 49.5039 31.3674 49.5039C28.2153 49.5039 25.2613 50.0176 22.1199 50.0176C18.9171 50.0176 16.2487 48.6466 13.8999 46.4214C12.7886 45.3686 11.6515 44.4014 10.589 43.3389C10.1932 42.9431 8.68345 42.2811 8.84799 41.5407C9.14518 40.2033 15.1069 39.0625 16.012 38.8293C20.8398 37.5853 26.9798 38.055 31.082 35.0047C33.9624 32.8628 37.0878 30.9672 40.2439 29.2678C41.5686 28.5545 43.1636 26.981 44.725 26.8988C47.9672 26.7282 43.6975 33.0088 43.6975 34.0913" stroke="#FF0000" stroke-width="5" stroke-linecap="round"/>
<path d="M32.9087 47.4489C27.0062 47.4489 21.5557 47.8378 16.7255 44.0809C15.94 43.47 13.7257 38.9234 14.9845 38.7436C16.9243 38.4665 18.5443 38.929 20.3503 39.2574C22.1279 39.5806 23.6488 40.2428 25.3166 40.8843C26.0417 41.1631 27.3554 42.4324 26.8578 40.8843C26.3459 39.2915 25.5812 37.678 24.6887 36.2605C23.1123 33.7568 21.0924 31.8322 21.0924 28.5542C21.0924 23.4165 28.7998 27.2637 30.6253 29.753C32.2978 32.0336 32.8696 34.5347 34.1931 36.917C35.6992 39.6279 34.8214 35.0442 35.0208 33.549C35.3348 31.194 37.3897 27.6663 39.3306 26.1567C40.4623 25.2765 42.9389 25.8983 43.1552 27.4125C43.5869 30.4343 44.1257 36.523 41.3856 38.7151C39.4214 40.2864 36.9283 45.3939 33.9362 45.3939C31.6108 45.3939 29.3065 44.3663 26.8578 44.3663C25.9371 44.3663 21.7826 44.7507 21.6061 43.3388C21.5464 42.8607 21.1779 42.5676 21.0639 42.0545C20.7072 40.4497 23.9395 41.8116 24.8885 42.0259C25.4069 42.143 31.5439 42.6895 29.0841 41.2838C27.5728 40.4202 28.2849 37.0832 28.2849 35.6611C28.2849 33.8574 27.629 31.3234 26.4868 29.9528C26.2193 29.6318 24.5856 27.0212 25.3166 29.068C26.4063 32.1191 29.4918 35.2982 31.767 37.5734C32.7505 38.5569 33.8036 39.2426 34.9637 39.8568C37.3371 41.1132 41.8151 29.4077 42.9554 27.1271C43.2961 26.4457 41.2178 30.5666 40.5008 31.5226C39.3066 33.1149 37.8712 34.3423 36.5049 35.6326C35.0264 37.029 33.5807 38.7479 33.4224 40.8843C33.2666 42.9882 32.4078 43.3388 34.9637 43.3388" stroke="#F2BB20" stroke-width="4" stroke-linecap="round"/>
<path d="M37.0187 16.6238C37.0187 18.8863 35.5511 20.5697 34.8495 22.6746C34.3803 24.0822 34.4499 25.4038 34.4499 26.8988" stroke="#FF0000" stroke-width="4" stroke-linecap="round"/>
</svg>
